<?xml version="1.0" standalone="no"?>
<!DOCTYPE svg PUBLIC "-//W3C//DTD SVG 20010904//EN"
 "http://www.w3.org/TR/2001/REC-SVG-20010904/DTD/svg10.dtd">
<svg version="1.0" xmlns="http://www.w3.org/2000/svg"
 width="344.000000pt" height="344.000000pt" viewBox="0 0 344.000000 344.000000"
 preserveAspectRatio="xMidYMid meet">
<metadata>
Created by potrace 1.11, written by Peter Selinger 2001-2013
</metadata>
<g transform="translate(0.000000,344.000000) scale(0.100000,-0.100000)"
fill="#000000" stroke="none">
<path d="M785 3064 c-62 -32 -101 -84 -105 -139 -4 -62 1 -83 30 -126 l29 -44
-139 -5 c-128 -5 -141 -7 -162 -28 -19 -18 -23 -33 -23 -85 l0 -62 82 -5 c61
-4 90 -11 110 -26 35 -25 73 -98 73 -139 0 -46 -40 -117 -79 -139 -18 -11 -61
-22 -95 -25 l-61 -6 -3 -130 c-4 -163 4 -231 29 -256 16 -16 34 -19 118 -19
l99 0 4 88 c6 135 49 191 151 200 41 3 63 -1 95 -17 61 -31 82 -78 82 -186 l0
-85 104 0 c101 0 105 1 125 26 19 25 21 40 21 205 l0 179 -52 0 c-109 0 -182
66 -182 165 0 64 27 112 80 142 35 20 53 23 171 23 l131 0 -5 38 c-5 34 3 78
22 125 7 16 -8 17 -229 17 l-237 0 32 39 c52 65 50 159 -3 227 -45 56 -151 81
-213 48z"/>
<path d="M2332 3059 c-105 -52 -132 -188 -55 -279 l25 -30 -251 0 c-138 0
-251 -2 -251 -4 0 -2 7 -20 15 -39 8 -20 15 -59 15 -86 l0 -50 154 -3 c137 -3
158 -5 183 -24 35 -25 73 -98 73 -139 0 -17 -10 -51 -22 -75 -29 -58 -89 -90
-165 -90 l-53 0 0 -179 c0 -165 2 -180 21 -205 20 -25 24 -26 125 -26 l104 0
0 82 c0 103 22 154 81 187 33 19 51 22 95 19 104 -9 154 -78 154 -210 l0 -78
100 0 c149 0 153 6 148 255 l-3 150 -61 6 c-100 9 -155 57 -170 146 -8 53 22
121 67 154 28 20 49 25 118 28 l83 3 -4 64 c-6 102 -17 108 -188 112 l-140 4
24 31 c61 80 52 180 -21 249 -55 53 -129 62 -201 27z"/>
<path d="M1576 2770 c-85 -26 -124 -139 -76 -218 11 -18 20 -35 20 -37 0 -3
-77 -5 -170 -5 -218 0 -250 -14 -250 -105 0 -76 44 -105 160 -105 l70 0 0
-219 c0 -261 -4 -251 106 -251 l74 0 0 78 c0 60 5 84 20 110 39 63 125 77 185
30 38 -30 55 -77 55 -153 l0 -65 68 0 c111 0 106 -10 110 249 l3 221 70 0 c82
0 122 17 145 61 20 40 12 88 -22 120 -25 23 -30 24 -225 27 -109 2 -199 5
-199 8 0 3 10 19 23 35 43 58 21 165 -42 202 -35 20 -89 28 -125 17z"/>
<path d="M208 1572 c33 -85 258 -592 263 -592 5 0 237 520 265 593 6 16 1 18
-46 15 l-52 -3 -69 -165 c-39 -91 -76 -182 -82 -202 l-13 -37 -84 204 -85 205
-52 0 c-47 0 -52 -2 -45 -18z"/>
<path d="M800 1285 l0 -305 50 0 50 0 0 305 0 305 -50 0 -50 0 0 -305z"/>
<path d="M980 1545 l0 -45 85 0 85 0 0 -260 0 -260 50 0 50 0 0 260 0 260 80
0 80 0 0 45 0 45 -215 0 -215 0 0 -45z"/>
<path d="M1480 1285 l0 -305 50 0 50 0 0 150 0 150 150 0 150 0 0 -150 0 -150
50 0 50 0 0 305 0 305 -50 0 -50 0 0 -110 0 -110 -150 0 -150 0 0 110 0 110
-50 0 -50 0 0 -305z"/>
<path d="M2120 1285 l0 -305 170 0 170 0 0 45 0 45 -120 0 -120 0 0 100 0 100
120 0 120 0 0 45 0 45 -120 0 -120 0 0 70 0 70 120 0 120 0 0 45 0 45 -170 0
-170 0 0 -305z"/>
<path d="M2635 1289 c-77 -160 -141 -295 -143 -300 -2 -5 19 -9 47 -9 l51 0
37 75 37 75 119 0 118 0 35 -75 c34 -73 35 -75 72 -76 20 0 31 -3 25 -6 -17
-6 -16 -36 1 -93 l13 -44 -38 -19 c-72 -35 -103 -127 -70 -205 26 -61 104 -78
147 -31 16 18 19 18 35 3 17 -15 20 -15 44 0 14 9 25 18 25 19 0 2 -9 20 -20
41 -10 21 -33 100 -50 175 -30 129 -40 153 -183 449 -83 171 -153 312 -156
312 -3 0 -69 -131 -146 -291z m225 -60 c0 -5 -36 -9 -80 -9 l-79 0 30 68 c17
37 35 78 41 92 9 23 12 19 49 -59 21 -46 39 -88 39 -92z m214 -513 c11 -56 1
-80 -36 -84 -50 -6 -61 90 -15 123 31 22 41 14 51 -39z"/>
<path d="M3255 891 c-38 -23 -65 -62 -65 -95 0 -27 27 -50 72 -61 42 -11 53
-30 34 -60 -9 -13 -27 -27 -41 -31 -28 -7 -32 -25 -10 -44 23 -19 64 -3 107
39 63 63 49 114 -38 144 -51 18 -55 41 -10 68 39 23 42 29 24 47 -17 17 -38
15 -73 -7z"/>
<path d="M2613 867 c-10 -13 -31 -51 -47 -85 -16 -34 -32 -62 -36 -62 -3 0
-12 27 -18 60 -9 41 -17 60 -28 60 -16 0 -74 -27 -74 -35 0 -2 9 -19 19 -37
10 -18 31 -87 46 -153 42 -190 44 -195 63 -195 10 0 27 6 37 14 18 13 18 15
-2 89 -19 70 -21 121 -3 132 4 3 24 -21 45 -51 39 -60 113 -144 125 -144 4 0
19 9 34 21 l27 21 -49 52 c-52 55 -142 173 -142 186 0 5 20 38 44 73 41 62 42
66 22 71 -35 9 -44 7 -63 -17z"/>
<path d="M2772 858 c-28 -28 -1 -75 37 -63 11 3 23 15 26 26 12 38 -35 65 -63
37z"/>
<path d="M2818 758 c-16 -5 -28 -15 -28 -21 0 -23 40 -177 54 -212 17 -40 22
-42 55 -16 24 18 24 19 8 53 -9 20 -26 72 -36 118 -11 45 -21 84 -23 85 -2 1
-15 -2 -30 -7z"/>
</g>
</svg>
